<?xml version="1.0" standalone="no"?>
<!DOCTYPE svg PUBLIC "-//W3C//DTD SVG 20010904//EN"
 "http://www.w3.org/TR/2001/REC-SVG-20010904/DTD/svg10.dtd">
<svg version="1.0" xmlns="http://www.w3.org/2000/svg"
 width="512.000000pt" height="512.000000pt" viewBox="0 0 512.000000 512.000000"
 preserveAspectRatio="xMidYMid meet">
<metadata>
Created by potrace 1.14, written by Peter Selinger 2001-2017
</metadata>
<g transform="translate(0.000000,512.000000) scale(0.100000,-0.100000)"
fill="#000000" stroke="none">
<path d="M2379 5116 c-2 -2 -38 -6 -79 -10 -64 -6 -213 -30 -315 -51 -126 -26
-338 -98 -480 -163 -831 -378 -1399 -1166 -1493 -2072 -14 -140 -7 -504 12
-615 3 -16 8 -43 10 -60 43 -310 189 -687 381 -980 321 -492 780 -846 1340
-1033 275 -92 488 -126 800 -127 217 0 307 8 480 41 44 8 91 18 105 20 131 25
390 118 553 200 640 319 1107 869 1316 1549 39 128 71 273 86 385 27 212 27
561 1 715 -3 17 -8 44 -10 60 -3 17 -10 55 -16 85 -6 30 -14 66 -16 80 -3 14
-16 64 -30 112 -164 584 -526 1085 -1036 1432 -54 36 -101 66 -105 66 -3 0
-14 6 -22 14 -20 18 -257 137 -331 166 -144 58 -387 130 -490 146 -14 2 -38 6
-55 8 -16 3 -50 8 -75 11 -25 4 -56 9 -70 11 -28 6 -456 15 -461 10z"/>
</g>
</svg>
